# xmcd
#
# Track frame offsets:
#	150
#	15407
#	34307
#	48486
#	65040
#	78342
#	95327
#	108099
#	125345
#	158978
#	174075
#	194612
#	210502
#	228094
#
# Disc length: 3177 seconds
#
# Revision: 0
# Processed by: cddbd v1.5.2PL0 Copyright (c) Steve Scherf et al.
# Submitted via: EZCDAudioConverter 5.0.4.1
#
DISCID=ac0c670e
DTITLE=Hank, Pattie and The Current
DYEAR=2016
DGENRE=Bluegrass
TTITLE0=All I Remember
TTITLE1=Better Life
TTITLE2=Starman
TTITLE3=Tie Me Up
TTITLE4=Heard The Sound
TTITLE5=Travelin' Man
TTITLE6=Pipop
TTITLE7=Vendetta
TTITLE8=Sundown
TTITLE9=Rambler's Curse
TTITLE10=Losing My Mind
TTITLE11=Wilkesboro Waltz
TTITLE12=Thought Of Lovin'
TTITLE13=Hometeam
EXTD=
EXTT0=
EXTT1=
EXTT2=
EXTT3=
EXTT4=
EXTT5=
EXTT6=
EXTT7=
EXTT8=
EXTT9=
EXTT10=
EXTT11=
EXTT12=
EXTT13=
PLAYORDER=
